<?xml version="1.0" encoding="utf-8"?>
<!-- Generator: Adobe Illustrator 26.0.2, SVG Export Plug-In . SVG Version: 6.00 Build 0)  -->
<svg version="1.2" baseProfile="tiny" id="圖層_1"
	 xmlns="http://www.w3.org/2000/svg" xmlns:xlink="http://www.w3.org/1999/xlink" x="0px" y="0px" viewBox="0 0 256 256"
	 overflow="visible" xml:space="preserve">
<g>
	<path fill="#13AE67" d="M157.5,6.7c0.9-0.3,2.4-1.2,3.7-1.2h0.9c1.2,0,2.4,0.9,3,1.8l3.7,4.9c0.3,0.9,2.4,1.8,3.7,1.8l10.7,3.7
		c1.2,0,2.1,0.9,3,1.8l3.4,5.8c1.2,0.3,0.3,1.8,0,2.7l-6.7,7c-0.6,0.6-1.2,2.4-2.1,3.3l-1.2,6.1v4.3l1.2,2.7c0.9,1.2,1.2,3,1.2,4.3
		l0.3,1.8c0,0.9,0,3-0.3,4.3l-3.4,7.6c-0.3,0.9-1.5,2.4-1.8,3.7l-7,17.7c-0.9,1.2-0.9,3.3-0.9,4.6c0,1.2,0.3,2.7,0,3.7
		c-1.8,11.3-6.7,38.7-7.6,41.1l-5.5,15.8c-0.6,0.9-1.5,3-1.5,4.3c-0.9,3.4-0.3,4.3-2.1,6.7l-10.4,17.4c-0.3,0.9-1.8,2.4-2.4,2.7
		l-7.9,8.8c-0.3,0.9-1.5,2.1-1.8,3.4l-7.3,18.6c-0.3,1.2-0.3,3.3-0.3,4v19.5c0,1.5-0.6,2.7-0.9,4l-1.2,4.3c-0.6,0.9-1.8,1.5-2.7,0.9
		l-3.7-1.8c-0.6-0.6-2.4-1.2-3.3-2.4l-1.5-0.9c-0.3-1.2-0.9-2.4-0.9-4l0.9-5.2c0-1.2,0-2.7-0.3-4l-4.3-9.1c-0.3-1.2-1.2-2.4-2.7-3.7
		l-9.1-8.2c-1.2-1.2-2.7-1.5-4-1.5h-0.3c-0.9,0-2.4-0.9-3-2.1l-6.7-9.4c-0.6-0.9-0.9-2.4-1.5-3.7l-1.8-6.7c0-0.9-0.6-3-0.6-4v-7
		c0-1.2-0.3-2.4-1.5-2.7l-5.2-4.3c-1.2-0.3-1.5-2.4-1.5-3.3l0.3-3.4c0-1.2,0.9-2.7,0.9-4l0.9-4.9c0-0.9,1.2-2.4,1.2-3.3l0.9-0.6
		c0.9-1.2,1.5-2.4,0.9-3.7l-0.9-20.7c0-0.9,0-2.4,0.9-3.4l35.3-62.1c0.6-1.2,1.8-2.7,2.7-3.7l7.9-9.1c0.9-0.6,2.1-2.1,2.7-3
		l8.8-19.8c0.3-0.9,2.1-2.1,2.7-2.1l9.1-3.3c1.2-0.6,2.7-1.2,4.6-1.5l5.5-0.9c1.2-0.6,2.4-1.8,2.4-2.7s0.3-2.7,1.2-4L157.5,6.7z"/>
</g>
</svg>
